<svg xmlns="http://www.w3.org/2000/svg" viewBox="0 0 32 32" width="32" height="32">
  <rect width="32" height="32" rx="6" fill="#f97316"/>
  <!-- Fork -->
  <g transform="translate(9, 6)" fill="white">
    <rect x="1.5" y="0" width="1.2" height="7" rx="0.4"/>
    <rect x="4.3" y="0" width="1.2" height="7" rx="0.4"/>
    <rect x="1.5" y="5.5" width="4" height="1.2" rx="0.4"/>
    <rect x="2.3" y="6.5" width="1.4" height="8" rx="0.5"/>
  </g>
  <!-- Knife -->
  <g transform="translate(17, 6)" fill="white">
    <path d="M1.5 0 L5 0 Q5.5 0 5.5 0.8 L5.5 7 Q5.5 7.5 5 7.5 L1.5 7.5 Q0.8 7.5 0.8 7 L0.8 0.8 Q0.8 0 1.5 0 Z"/>
    <rect x="2.3" y="7" width="1.4" height="7.5" rx="0.5"/>
  </g>
</svg>
